<svg width="18" height="13" viewBox="0 0 18 13" fill="none" xmlns="http://www.w3.org/2000/svg">
<path fill-rule="evenodd" clip-rule="evenodd" d="M17.78 0.468388C17.8498 0.538056 17.9053 0.620819 17.9431 0.711937C17.9809 0.803055 18.0003 0.900737 18.0003 0.999388C18.0003 1.09804 17.9809 1.19572 17.9431 1.28684C17.9053 1.37796 17.8498 1.46072 17.78 1.53039L7.27999 12.0304C7.21033 12.1002 7.12756 12.1556 7.03645 12.1935C6.94533 12.2313 6.84764 12.2507 6.74899 12.2507C6.65034 12.2507 6.55266 12.2313 6.46154 12.1935C6.37043 12.1556 6.28766 12.1002 6.21799 12.0304L0.967994 6.78039C0.827164 6.63956 0.748047 6.44855 0.748047 6.24939C0.748047 6.05022 0.827164 5.85922 0.967994 5.71839C1.10882 5.57756 1.29983 5.49844 1.49899 5.49844C1.69816 5.49844 1.88916 5.57756 2.02999 5.71839L6.74899 10.4389L16.718 0.468388C16.7877 0.398543 16.8704 0.343129 16.9615 0.305319C17.0527 0.267509 17.1503 0.248047 17.249 0.248047C17.3476 0.248047 17.4453 0.267509 17.5364 0.305319C17.6276 0.343129 17.7103 0.398543 17.78 0.468388V0.468388Z" fill="#92FAF4"/>
</svg>
