<svg width="22" height="22" viewBox="0 0 22 22" fill="none" xmlns="http://www.w3.org/2000/svg">
<g clip-path="url(#clip0_6717_13425)">
<path d="M0 1.43005C0 0.640255 0.640256 0 1.43005 0H20.3067C21.0965 0 21.7368 0.640256 21.7368 1.43005V2.83837C21.7368 3.62817 21.0965 4.26843 20.3067 4.26843H1.43005C0.640258 4.26843 0 3.62817 0 2.83837V1.43005Z" fill="#92FAF4"/>
<path d="M0 7.27185C0 6.48205 0.640256 5.8418 1.43005 5.8418H11.076C11.8658 5.8418 12.5061 6.48206 12.5061 7.27185V8.72933C12.5061 9.51912 11.8658 10.1594 11.076 10.1594H1.43005C0.640254 10.1594 0 9.51912 0 8.72933V7.27185Z" fill="#92FAF4"/>
<path d="M0 19.0037C0 18.2139 0.640256 17.5737 1.43005 17.5737H4.57616C5.36596 17.5737 6.00622 18.2139 6.00622 19.0037V20.4338C6.00622 21.2236 5.36596 21.8638 4.57616 21.8638H1.43005C0.640257 21.8638 0 21.2236 0 20.4338V19.0037Z" fill="#92FAF4"/>
<path d="M0 13.1625C0 12.3727 0.640256 11.7324 1.43005 11.7324H15.9594C16.7492 11.7324 17.3894 12.3727 17.3894 13.1625V14.5708C17.3894 15.3606 16.7492 16.0008 15.9594 16.0008H1.43005C0.640257 16.0008 0 15.3606 0 14.5708V13.1625Z" fill="#92FAF4"/>
</g>
<defs>
<clipPath id="clip0_6717_13425">
<rect width="22" height="22" fill="white"/>
</clipPath>
</defs>
</svg>
