<svg width="15" height="16" viewBox="0 0 15 16" fill="none" xmlns="http://www.w3.org/2000/svg">
<path d="M9.84375 8C9.84375 8.6216 9.59682 9.21774 9.15728 9.65728C8.71774 10.0968 8.1216 10.3438 7.5 10.3438C6.8784 10.3438 6.28226 10.0968 5.84272 9.65728C5.40318 9.21774 5.15625 8.6216 5.15625 8C5.15625 7.3784 5.40318 6.78226 5.84272 6.34272C6.28226 5.90318 6.8784 5.65625 7.5 5.65625C8.1216 5.65625 8.71774 5.90318 9.15728 6.34272C9.59682 6.78226 9.84375 7.3784 9.84375 8V8Z" fill="#06423D"/>
<path fill-rule="evenodd" clip-rule="evenodd" d="M0 8C0 8 2.8125 2.84375 7.5 2.84375C12.1875 2.84375 15 8 15 8C15 8 12.1875 13.1562 7.5 13.1562C2.8125 13.1562 0 8 0 8ZM7.5 11.2812C8.37024 11.2812 9.20484 10.9355 9.82019 10.3202C10.4355 9.70484 10.7812 8.87024 10.7812 8C10.7812 7.12976 10.4355 6.29516 9.82019 5.67981C9.20484 5.06445 8.37024 4.71875 7.5 4.71875C6.62976 4.71875 5.79516 5.06445 5.17981 5.67981C4.56445 6.29516 4.21875 7.12976 4.21875 8C4.21875 8.87024 4.56445 9.70484 5.17981 10.3202C5.79516 10.9355 6.62976 11.2812 7.5 11.2812V11.2812Z" fill="#06423D"/>
</svg>
