<svg width="13" height="15" viewBox="0 0 13 15" fill="none" xmlns="http://www.w3.org/2000/svg">
<path fill-rule="evenodd" clip-rule="evenodd" d="M1.34375 1.4375C1.09511 1.4375 0.856653 1.53627 0.680837 1.71209C0.505022 1.8879 0.40625 2.12636 0.40625 2.375V3.3125C0.40625 3.56114 0.505022 3.7996 0.680837 3.97541C0.856653 4.15123 1.09511 4.25 1.34375 4.25H1.8125V12.6875C1.8125 13.1848 2.01004 13.6617 2.36167 14.0133C2.71331 14.365 3.19022 14.5625 3.6875 14.5625H9.3125C9.80978 14.5625 10.2867 14.365 10.6383 14.0133C10.99 13.6617 11.1875 13.1848 11.1875 12.6875V4.25H11.6562C11.9049 4.25 12.1433 4.15123 12.3192 3.97541C12.495 3.7996 12.5938 3.56114 12.5938 3.3125V2.375C12.5938 2.12636 12.495 1.8879 12.3192 1.71209C12.1433 1.53627 11.9049 1.4375 11.6562 1.4375H8.375C8.375 1.18886 8.27623 0.950403 8.10041 0.774587C7.9246 0.598772 7.68614 0.5 7.4375 0.5H5.5625C5.31386 0.5 5.0754 0.598772 4.89959 0.774587C4.72377 0.950403 4.625 1.18886 4.625 1.4375H1.34375ZM4.15625 5.1875C4.28057 5.1875 4.3998 5.23689 4.48771 5.32479C4.57561 5.4127 4.625 5.53193 4.625 5.65625V12.2188C4.625 12.3431 4.57561 12.4623 4.48771 12.5502C4.3998 12.6381 4.28057 12.6875 4.15625 12.6875C4.03193 12.6875 3.9127 12.6381 3.82479 12.5502C3.73689 12.4623 3.6875 12.3431 3.6875 12.2188V5.65625C3.6875 5.53193 3.73689 5.4127 3.82479 5.32479C3.9127 5.23689 4.03193 5.1875 4.15625 5.1875V5.1875ZM6.5 5.1875C6.62432 5.1875 6.74355 5.23689 6.83146 5.32479C6.91936 5.4127 6.96875 5.53193 6.96875 5.65625V12.2188C6.96875 12.3431 6.91936 12.4623 6.83146 12.5502C6.74355 12.6381 6.62432 12.6875 6.5 12.6875C6.37568 12.6875 6.25645 12.6381 6.16854 12.5502C6.08064 12.4623 6.03125 12.3431 6.03125 12.2188V5.65625C6.03125 5.53193 6.08064 5.4127 6.16854 5.32479C6.25645 5.23689 6.37568 5.1875 6.5 5.1875V5.1875ZM9.3125 5.65625C9.3125 5.53193 9.26311 5.4127 9.17521 5.32479C9.0873 5.23689 8.96807 5.1875 8.84375 5.1875C8.71943 5.1875 8.6002 5.23689 8.51229 5.32479C8.42439 5.4127 8.375 5.53193 8.375 5.65625V12.2188C8.375 12.3431 8.42439 12.4623 8.51229 12.5502C8.6002 12.6381 8.71943 12.6875 8.84375 12.6875C8.96807 12.6875 9.0873 12.6381 9.17521 12.5502C9.26311 12.4623 9.3125 12.3431 9.3125 12.2188V5.65625Z" fill="#EB5757"/>
</svg>
